<?xml version="1.0" encoding="UTF-8" standalone="no"?><!-- Generator: Gravit.io --><svg xmlns="http://www.w3.org/2000/svg" xmlns:xlink="http://www.w3.org/1999/xlink" style="isolation:isolate" viewBox="0 0 1080 1080" width="1080pt" height="1080pt"><defs><clipPath id="_clipPath_raTk6SjPdAj2WIVeYYKdIPQs4wWkurdL"><rect width="1080" height="1080"/></clipPath></defs><g clip-path="url(#_clipPath_raTk6SjPdAj2WIVeYYKdIPQs4wWkurdL)"><rect width="1080" height="1080" style="fill:rgb(1,0,1)" fill-opacity="0"/><g><g><path d=" M 524.192 85.809 C 491.142 84.432 514.552 86.154 491.142 102.334 C 467.732 118.515 410.24 165.679 400.256 193.22 C 390.272 220.762 372.37 271.713 378.223 289.615 C 384.075 307.517 383.043 288.926 372.715 311.648 C 362.387 334.369 347.239 340.222 342.419 374.993 C 337.6 409.764 370.305 441.78 353.436 443.846 C 336.567 445.911 335.19 440.747 328.649 452.108 C 322.108 463.469 324.517 449.354 301.107 463.125 C 277.697 476.895 235.353 493.764 223.992 512.699 C 212.631 531.634 169.254 569.503 174.417 581.552 C 179.581 593.602 143.778 591.536 160.647 625.618 C 177.516 659.701 160.976 625.33 135.86 683.455 C 123.81 711.341 100.745 735.095 97.302 757.816 C 93.859 780.538 77.334 776.751 75.269 801.883 C 73.203 827.014 27.416 828.391 39.465 867.982 C 51.515 907.572 18.121 897.588 47.728 917.556 C 77.334 937.523 97.646 925.474 113.827 934.081 C 130.007 942.687 122.089 944.753 160.647 956.114 Q 199.205 967.474 645.373 956.114 L 904.261 956.114 Q 1013.049 947.851 1017.181 925.818 C 1021.312 903.785 1044.722 934.081 1044.722 890.015 C 1044.722 845.949 1048.853 828.047 1017.181 801.883 C 985.508 775.718 967.606 690.34 942.819 683.455 Q 918.032 676.57 915.278 691.717 Q 905.638 606.339 882.228 589.815 C 858.818 573.29 871.212 566.405 860.195 548.503 C 849.179 530.601 869.835 511.322 818.883 498.928 C 767.932 486.535 770.686 485.158 736.26 463.125 C 701.833 441.092 737.637 442.469 727.997 397.026 C 718.358 351.583 689.439 231.778 659.144 182.204 C 628.849 132.629 557.241 87.186 524.192 85.809 Z " fill="rgb(46,46,46)"/><clipPath id="_clipPath_vw3Ylke3vuKH5vwjy2SBtBSEwdnQy5D7"><path d=" M 524.192 85.809 C 491.142 84.432 514.552 86.154 491.142 102.334 C 467.732 118.515 410.24 165.679 400.256 193.22 C 390.272 220.762 372.37 271.713 378.223 289.615 C 384.075 307.517 383.043 288.926 372.715 311.648 C 362.387 334.369 347.239 340.222 342.419 374.993 C 337.6 409.764 370.305 441.78 353.436 443.846 C 336.567 445.911 335.19 440.747 328.649 452.108 C 322.108 463.469 324.517 449.354 301.107 463.125 C 277.697 476.895 235.353 493.764 223.992 512.699 C 212.631 531.634 169.254 569.503 174.417 581.552 C 179.581 593.602 143.778 591.536 160.647 625.618 C 177.516 659.701 160.976 625.33 135.86 683.455 C 123.81 711.341 100.745 735.095 97.302 757.816 C 93.859 780.538 77.334 776.751 75.269 801.883 C 73.203 827.014 27.416 828.391 39.465 867.982 C 51.515 907.572 18.121 897.588 47.728 917.556 C 77.334 937.523 97.646 925.474 113.827 934.081 C 130.007 942.687 122.089 944.753 160.647 956.114 Q 199.205 967.474 645.373 956.114 L 904.261 956.114 Q 1013.049 947.851 1017.181 925.818 C 1021.312 903.785 1044.722 934.081 1044.722 890.015 C 1044.722 845.949 1048.853 828.047 1017.181 801.883 C 985.508 775.718 967.606 690.34 942.819 683.455 Q 918.032 676.57 915.278 691.717 Q 905.638 606.339 882.228 589.815 C 858.818 573.29 871.212 566.405 860.195 548.503 C 849.179 530.601 869.835 511.322 818.883 498.928 C 767.932 486.535 770.686 485.158 736.26 463.125 C 701.833 441.092 737.637 442.469 727.997 397.026 C 718.358 351.583 689.439 231.778 659.144 182.204 C 628.849 132.629 557.241 87.186 524.192 85.809 Z " fill="rgb(46,46,46)"/></clipPath><g clip-path="url(#_clipPath_vw3Ylke3vuKH5vwjy2SBtBSEwdnQy5D7)"><path d=" M 480.126 94.072 C 500.265 110.769 508.872 113.953 507.667 124.367 C 506.462 134.781 517.565 144.162 513.175 149.154 C 508.786 154.146 504.827 156.47 502.159 146.4 C 499.491 136.33 506.978 126.734 496.65 124.367 C 486.322 122 489.421 116.965 480.126 121.613 C 470.831 126.261 441.568 145.496 436.06 154.662 C 430.551 163.829 414.844 176.351 411.272 187.712 C 407.701 199.073 396.125 223.817 394.748 231.778 C 393.371 239.739 382.612 260.567 383.731 267.582 C 384.85 274.596 385.496 291.551 389.239 292.369 Q 392.983 293.186 427.797 270.336 L 460.847 198.729 Q 458.824 180.482 455.339 171.187 C 451.853 161.892 456.974 158.535 458.093 162.925 C 459.212 167.314 464.289 192.015 469.109 193.22 C 473.929 194.425 476.081 197.782 474.617 204.237 C 473.154 210.692 464.806 242.149 460.847 248.303 C 456.888 254.457 449.486 276.877 441.568 281.352 C 433.65 285.828 394.317 303.988 386.485 306.139 C 378.653 308.291 376.846 318.06 372.715 322.664 C 368.584 327.269 354.081 343.966 350.682 358.468 C 347.282 372.97 343.839 380.63 345.173 391.517 C 346.507 402.405 352.704 414.885 356.19 421.813 C 359.676 428.741 369.918 441.995 361.698 446.6 C 353.479 451.205 348.014 447.59 342.419 452.108 C 336.825 456.627 343.194 466.223 336.911 465.879 C 330.628 465.535 324.474 462.264 320.386 463.125 C 316.298 463.985 250.414 491.742 243.271 501.683 C 236.127 511.623 226.961 528.88 223.992 537.486 C 221.023 546.093 189.35 563.306 185.434 573.29 C 181.518 583.274 188.963 585.124 185.434 589.815 C 181.905 594.505 171.104 597.733 171.663 609.094 C 172.223 620.454 182.207 636.42 179.926 644.897 C 177.645 653.375 138.528 710.222 133.106 713.75 C 127.683 717.279 118.646 739.226 116.581 749.554 C 114.515 759.882 120.884 775.417 113.827 779.849 C 106.769 784.282 95.882 786.692 94.548 793.62 C 93.214 800.548 93.3 811.006 86.285 815.653 C 79.271 820.301 68.125 823.012 61.498 840.44 C 54.871 857.869 82.757 871.08 86.285 878.998 C 89.814 886.916 104.661 912.349 100.056 920.31 C 95.451 928.271 52.418 914.414 42.219 914.802 Q 32.02 915.189 17.432 895.523 L 44.973 749.554 L 138.614 523.716 L 306.616 306.139 L 422.289 113.351 Q 459.986 77.375 480.126 94.072 Z " fill="rgb(54,175,225)"/><path d=" M 499.405 85.809 C 527.634 99.924 527.634 99.58 537.962 118.859 C 548.29 138.138 597.197 191.85 565.504 209.745 C 531.652 228.859 535.231 255.288 510.421 270.336 C 496.967 304.546 411.579 319.137 372.715 325.418 C 348.055 352.18 353.436 390.14 361.698 424.567 C 362.387 451.075 377.879 452.625 389.239 474.141 C 385.455 505.734 395.473 517.293 411.272 537.486 C 411.272 550.269 452.836 334.967 571.012 295.123 C 656.541 317.64 702.694 321.807 703.21 330.927 C 704.104 346.729 713.563 360.202 711.472 374.993 C 709.275 390.539 726.276 394.616 722.489 413.55 C 718.702 432.485 701.489 445.223 697.702 463.125 C 693.915 481.027 693.226 496.519 697.702 509.945 Q 702.177 523.371 730.751 556.765 Q 854.343 675.537 862.949 702.734 C 871.556 729.931 883.261 749.898 904.261 777.095 C 925.262 804.292 928.704 837.342 920.786 865.227 C 912.868 893.113 815.441 851.457 785.834 865.227 Q 756.227 878.998 851.933 961.622 L 956.59 967.13 L 1075.017 925.818 L 1058.493 730.275 L 931.803 565.028 L 763.801 322.664 L 675.669 77.547 Q 471.175 71.694 499.405 85.809 Z " fill="rgb(23,23,23)"/><path d=" M 436.06 493.42 Q 405.076 487.223 389.239 496.174 C 373.403 505.125 374.092 496.863 361.698 498.928 C 349.305 500.994 338.288 489.978 325.895 496.174 C 313.501 502.371 294.911 503.748 287.337 518.207 C 279.763 532.667 256.353 544.372 251.533 570.536 C 246.713 596.7 206.779 671.061 190.942 694.472 C 175.106 717.882 161.335 746.8 160.647 755.062 C 159.958 763.325 167.532 772.276 160.647 779.849 C 153.762 787.423 142.745 792.932 146.876 801.883 C 151.007 810.833 151.007 820.473 160.647 826.67 C 170.286 832.866 186.811 845.949 201.959 845.949 Q 217.106 845.949 416.781 845.949 L 436.06 493.42 Z " fill="rgb(23,23,23)"/><path d=" M 36.711 912.048 C 58.744 914.113 68.384 914.802 78.023 912.048 C 87.662 909.293 100.056 908.605 111.073 906.539 C 122.089 904.474 127.597 911.359 138.614 912.048 C 149.63 912.736 166.155 907.916 174.417 912.048 C 182.68 916.179 190.254 900.343 207.467 901.031 C 224.68 901.72 267.369 893.457 279.074 901.031 Q 290.779 908.605 287.337 972.638 L 100.056 975.393 Q 14.678 909.982 36.711 912.048 Z " fill="rgb(23,23,23)"/><path d=" M 380.977 297.877 C 380.977 302.094 433.908 277.307 438.814 270.336 C 443.72 263.364 458.136 231.391 458.093 226.27 C 458.05 221.149 467.044 193.737 458.093 198.729 C 449.142 203.72 449.185 220.546 444.322 226.27 C 439.459 231.993 432.789 245.42 427.797 253.811 C 422.805 262.203 420.654 263.451 411.272 273.09 C 401.891 282.729 380.977 293.66 380.977 297.877 Z " fill="rgb(23,22,22)"/><path d=" M 772.063 468.633 C 763.241 485.287 762.08 499.488 752.784 501.683 C 743.489 503.877 747.879 498.584 744.522 509.945 C 741.165 521.306 738.842 533.269 752.784 529.224 C 766.727 525.179 775.506 520.617 785.834 520.961 C 796.162 521.306 807.437 522.08 816.129 518.207 C 824.822 514.334 827.877 519.498 838.162 509.945 C 848.447 500.392 852.751 483.781 840.916 482.404 C 829.082 481.027 780.885 451.979 772.063 468.633 Z " fill="rgb(47,46,47)"/></g><path d=" M 554.487 292.369 C 526.028 291.451 461.765 311.648 436.06 319.91 C 410.355 328.173 375.469 320.828 369.961 344.697 C 364.452 368.566 359.862 420.895 369.961 438.338 C 380.059 455.78 394.748 465.879 397.502 476.895 C 400.256 487.912 399.338 520.043 411.272 526.47 C 423.207 532.896 443.404 548.503 449.83 562.273 Q 456.257 576.044 496.65 631.127 L 584.783 631.127 Q 621.504 567.782 634.357 562.273 C 647.21 556.765 660.98 548.503 672.915 531.978 C 684.849 515.453 673.833 496.174 683.931 476.895 C 694.03 457.617 720.653 418.141 708.718 397.026 C 696.784 375.911 712.39 333.681 692.194 328.173 C 671.997 322.664 582.946 293.287 554.487 292.369 Z " fill="rgb(0,0,0)"/></g><g><path d="M 195.683 933.52 L 880.237 933.52 C 885.896 933.52 890.49 938.114 890.49 943.773 L 890.49 984.317 C 890.49 989.976 885.896 994.57 880.237 994.57 L 195.683 994.57 C 190.024 994.57 185.43 989.976 185.43 984.317 L 185.43 943.773 C 185.43 938.114 190.024 933.52 195.683 933.52 Z" style="stroke:none;fill:#2E2E2E;stroke-miterlimit:10;"/><path d="M 212.63 523.61 L 863.29 523.61 C 878.302 523.61 890.49 535.798 890.49 550.811 L 890.49 926.059 C 890.49 941.072 878.302 953.26 863.29 953.26 L 212.63 953.26 C 197.618 953.26 185.43 941.072 185.43 926.059 L 185.43 550.811 C 185.43 535.798 197.618 523.61 212.63 523.61 Z" style="stroke:none;fill:#464646;stroke-miterlimit:10;"/><defs><filter id="49aIzk95s6mktiyd1Cg9sWePQ6oCdAOC" x="-200%" y="-200%" width="400%" height="400%" filterUnits="objectBoundingBox" color-interpolation-filters="sRGB"><feGaussianBlur xmlns="http://www.w3.org/2000/svg" in="SourceGraphic" stdDeviation="8.587218125678056"/><feOffset xmlns="http://www.w3.org/2000/svg" dx="0" dy="0" result="pf_100_offsetBlur"/><feFlood xmlns="http://www.w3.org/2000/svg" flood-color="#72C7EA" flood-opacity="0.95"/><feComposite xmlns="http://www.w3.org/2000/svg" in2="pf_100_offsetBlur" operator="in" result="pf_100_dropShadow"/><feBlend xmlns="http://www.w3.org/2000/svg" in="SourceGraphic" in2="pf_100_dropShadow" mode="normal"/></filter></defs><g filter="url(#49aIzk95s6mktiyd1Cg9sWePQ6oCdAOC)"><path d=" M 532.454 760.571 C 522.019 766.66 510.904 775.453 506.978 776.02 C 503.053 776.586 492.852 774.131 485.634 771.587 C 480.448 768.854 477.377 767.66 477.372 765.369 C 477.366 763.077 507.187 750.32 534.692 738.707 C 557.499 729.078 577.209 719.947 582.459 723.39 C 587.709 726.833 583.279 742.197 580.479 760.003 C 577.296 780.247 573.423 800.239 572.776 804.437 C 572.13 808.636 566.364 811.683 562.75 811.006 C 559.135 810.328 551.971 804.526 543.471 799.128 C 532.927 792.068 525.041 787.906 524.192 783.206 C 523.342 778.507 533.963 767.856 543.471 760.571 C 552.495 752.179 558.618 746.52 557.241 745.165 C 555.864 743.809 544.618 751.557 532.454 760.571 Z " fill="rgb(54,174,224)"/></g></g></g></g></svg>