<?xml version="1.0" encoding="UTF-8" standalone="no"?><!-- Generator: Gravit.io --><svg xmlns="http://www.w3.org/2000/svg" xmlns:xlink="http://www.w3.org/1999/xlink" style="isolation:isolate" viewBox="0 0 1500 500" width="1500pt" height="500pt"><defs><clipPath id="_clipPath_Qoz58Wl59kWX6f9ne78QlQ60LXN9ZyeG"><rect width="1500" height="500"/></clipPath></defs><g clip-path="url(#_clipPath_Qoz58Wl59kWX6f9ne78QlQ60LXN9ZyeG)"><linearGradient id="_lgradient_0" x1="0.04532316296625093" y1="-0.6204501952129181" x2="0.8560077163455462" y2="1.270650353019298"><stop offset="3.619595757449532%" style="stop-color:#36AEE0"/><stop offset="93.09130584614189%" style="stop-color:#071522"/></linearGradient><rect width="1500" height="500" style="fill:url(#_lgradient_0);"/><rect x="300" y="396" width="900" height="104" transform="matrix(1,0,0,1,0,0)" fill="rgb(235,235,235)"/><g><g><path d=" M 743.849 73.28 C 730.99 72.745 740.099 73.414 730.99 79.71 C 721.882 86.006 699.512 104.357 695.627 115.073 C 691.743 125.789 684.778 145.613 687.055 152.578 C 689.332 159.544 688.93 152.311 684.912 161.151 C 680.893 169.992 674.999 172.269 673.124 185.798 C 671.249 199.327 683.974 211.784 677.41 212.588 C 670.847 213.391 670.311 211.382 667.766 215.802 C 665.221 220.223 666.159 214.731 657.05 220.089 C 647.942 225.447 631.466 232.01 627.045 239.378 C 622.625 246.745 605.747 261.479 607.757 266.167 C 609.766 270.856 595.835 270.052 602.399 283.313 C 608.962 296.574 602.527 283.201 592.754 305.816 C 588.066 316.666 579.092 325.909 577.752 334.749 C 576.413 343.59 569.983 342.117 569.179 351.895 C 568.376 361.673 550.56 362.209 555.249 377.613 C 559.937 393.017 546.944 389.133 558.463 396.902 C 569.983 404.671 577.886 399.983 584.182 403.332 C 590.477 406.68 587.396 407.484 602.399 411.904 Q 617.401 416.325 790.999 411.904 L 891.729 411.904 Q 934.057 408.69 935.665 400.117 C 937.272 391.544 946.381 403.332 946.381 386.186 C 946.381 369.041 947.988 362.075 935.665 351.895 C 923.341 341.715 916.376 308.495 906.732 305.816 Q 897.087 303.137 896.016 309.031 Q 892.265 275.812 883.156 269.382 C 874.048 262.953 878.87 260.274 874.584 253.308 C 870.297 246.343 878.334 238.842 858.51 234.02 C 838.685 229.197 839.757 228.662 826.362 220.089 C 812.967 211.516 826.898 212.052 823.147 194.371 C 819.397 176.689 808.145 130.075 796.357 110.786 C 784.57 91.498 756.708 73.816 743.849 73.28 Z " fill="rgb(46,46,46)"/><clipPath id="_clipPath_yQd6Cxg1nZxxuFe1NIdJdCp9PRfmz1sN"><path d=" M 743.849 73.28 C 730.99 72.745 740.099 73.414 730.99 79.71 C 721.882 86.006 699.512 104.357 695.627 115.073 C 691.743 125.789 684.778 145.613 687.055 152.578 C 689.332 159.544 688.93 152.311 684.912 161.151 C 680.893 169.992 674.999 172.269 673.124 185.798 C 671.249 199.327 683.974 211.784 677.41 212.588 C 670.847 213.391 670.311 211.382 667.766 215.802 C 665.221 220.223 666.159 214.731 657.05 220.089 C 647.942 225.447 631.466 232.01 627.045 239.378 C 622.625 246.745 605.747 261.479 607.757 266.167 C 609.766 270.856 595.835 270.052 602.399 283.313 C 608.962 296.574 602.527 283.201 592.754 305.816 C 588.066 316.666 579.092 325.909 577.752 334.749 C 576.413 343.59 569.983 342.117 569.179 351.895 C 568.376 361.673 550.56 362.209 555.249 377.613 C 559.937 393.017 546.944 389.133 558.463 396.902 C 569.983 404.671 577.886 399.983 584.182 403.332 C 590.477 406.68 587.396 407.484 602.399 411.904 Q 617.401 416.325 790.999 411.904 L 891.729 411.904 Q 934.057 408.69 935.665 400.117 C 937.272 391.544 946.381 403.332 946.381 386.186 C 946.381 369.041 947.988 362.075 935.665 351.895 C 923.341 341.715 916.376 308.495 906.732 305.816 Q 897.087 303.137 896.016 309.031 Q 892.265 275.812 883.156 269.382 C 874.048 262.953 878.87 260.274 874.584 253.308 C 870.297 246.343 878.334 238.842 858.51 234.02 C 838.685 229.197 839.757 228.662 826.362 220.089 C 812.967 211.516 826.898 212.052 823.147 194.371 C 819.397 176.689 808.145 130.075 796.357 110.786 C 784.57 91.498 756.708 73.816 743.849 73.28 Z " fill="rgb(46,46,46)"/></clipPath><g clip-path="url(#_clipPath_yQd6Cxg1nZxxuFe1NIdJdCp9PRfmz1sN)"><path d=" M 726.704 76.495 C 734.54 82.992 737.888 84.231 737.42 88.283 C 736.951 92.335 741.271 95.985 739.563 97.927 C 737.855 99.869 736.315 100.774 735.276 96.856 C 734.238 92.937 737.152 89.204 733.133 88.283 C 729.115 87.362 730.32 85.403 726.704 87.211 C 723.087 89.019 711.701 96.504 709.558 100.07 C 707.415 103.637 701.304 108.509 699.914 112.929 C 698.524 117.35 694.02 126.977 693.484 130.075 C 692.948 133.173 688.763 141.276 689.198 144.006 C 689.633 146.735 689.884 153.332 691.341 153.65 Q 692.798 153.968 706.343 145.077 L 719.203 117.216 Q 718.416 110.116 717.059 106.5 C 715.703 102.883 717.696 101.577 718.131 103.285 C 718.566 104.993 720.542 114.604 722.417 115.073 C 724.293 115.541 725.13 116.847 724.561 119.359 C 723.991 121.871 720.743 134.11 719.203 136.505 C 717.662 138.899 714.782 147.622 711.701 149.364 C 708.621 151.105 693.317 158.171 690.269 159.008 C 687.222 159.845 686.519 163.646 684.912 165.438 C 683.304 167.229 677.662 173.726 676.339 179.368 C 675.016 185.011 673.677 187.991 674.196 192.227 C 674.715 196.464 677.126 201.319 678.482 204.015 C 679.838 206.711 683.823 211.868 680.625 213.659 C 677.427 215.451 675.301 214.044 673.124 215.802 C 670.947 217.561 673.425 221.294 670.981 221.16 C 668.536 221.027 666.142 219.754 664.551 220.089 C 662.961 220.424 637.326 231.223 634.547 235.091 C 631.767 238.959 628.201 245.673 627.045 249.022 C 625.89 252.371 613.567 259.068 612.043 262.953 C 610.519 266.837 613.416 267.557 612.043 269.382 C 610.67 271.207 606.467 272.463 606.685 276.883 C 606.903 281.304 610.787 287.516 609.9 290.814 C 609.012 294.113 593.793 316.231 591.683 317.604 C 589.573 318.977 586.057 327.516 585.253 331.535 C 584.45 335.553 586.928 341.598 584.182 343.322 C 581.436 345.047 577.2 345.984 576.68 348.68 C 576.161 351.376 576.195 355.445 573.466 357.253 C 570.736 359.061 566.4 360.116 563.821 366.897 C 561.243 373.679 572.093 378.819 573.466 381.9 C 574.839 384.98 580.615 394.876 578.824 397.974 C 577.032 401.071 560.288 395.68 556.32 395.83 Q 552.352 395.981 546.676 388.329 L 557.392 331.535 L 593.826 243.664 L 659.193 159.008 L 704.2 83.996 Q 718.868 69.999 726.704 76.495 Z " fill="rgb(54,175,225)"/><path d=" M 734.205 73.28 C 745.189 78.772 745.189 78.638 749.207 86.14 C 753.226 93.641 772.255 114.539 759.923 121.502 C 746.752 128.939 748.144 139.222 738.491 145.077 C 733.256 158.388 700.033 164.065 684.912 166.509 C 675.317 176.922 677.41 191.692 680.625 205.087 C 680.893 215.401 686.921 216.003 691.341 224.375 C 689.868 236.667 693.766 241.165 699.914 249.022 C 699.914 253.995 716.086 170.224 762.066 154.722 C 795.345 163.483 813.302 165.104 813.503 168.652 C 813.851 174.801 817.531 180.043 816.718 185.798 C 815.863 191.847 822.477 193.433 821.004 200.8 C 819.531 208.167 812.833 213.124 811.36 220.089 C 809.886 227.054 809.618 233.082 811.36 238.306 Q 813.101 243.53 824.219 256.523 Q 872.307 302.736 875.655 313.318 C 879.004 323.9 883.558 331.669 891.729 342.251 C 899.9 352.833 901.24 365.692 898.159 376.542 C 895.078 387.392 857.17 371.184 845.651 376.542 Q 834.131 381.9 871.369 414.047 L 912.09 416.191 L 958.168 400.117 L 951.739 324.034 L 902.445 259.738 L 837.078 165.438 L 802.787 70.066 Q 723.221 67.789 734.205 73.28 Z " fill="rgb(23,23,23)"/><path d=" M 709.558 231.876 Q 697.503 229.465 691.341 232.948 C 685.179 236.431 685.447 233.216 680.625 234.02 C 675.803 234.823 671.517 230.537 666.694 232.948 C 661.872 235.359 654.639 235.895 651.692 241.521 C 648.745 247.147 639.637 251.701 637.761 261.881 C 635.886 272.061 620.348 300.994 614.186 310.103 C 608.025 319.211 602.667 330.463 602.399 333.678 C 602.131 336.893 605.078 340.375 602.399 343.322 C 599.72 346.269 595.433 348.412 597.041 351.895 C 598.648 355.378 598.648 359.128 602.399 361.539 C 606.149 363.95 612.579 369.041 618.473 369.041 Q 624.366 369.041 702.057 369.041 L 709.558 231.876 Z " fill="rgb(23,23,23)"/><path d=" M 554.177 394.759 C 562.75 395.562 566.5 395.83 570.251 394.759 C 574.001 393.687 578.824 393.419 583.11 392.616 C 587.396 391.812 589.54 394.491 593.826 394.759 C 598.112 395.027 604.542 393.151 607.757 394.759 C 610.972 396.366 613.918 390.204 620.616 390.472 C 627.313 390.74 643.923 387.526 648.477 390.472 Q 653.032 393.419 651.692 418.334 L 578.824 419.405 Q 545.604 393.955 554.177 394.759 Z " fill="rgb(23,23,23)"/><path d=" M 688.126 155.793 C 688.126 157.434 708.721 147.79 710.63 145.077 C 712.539 142.365 718.148 129.924 718.131 127.932 C 718.114 125.939 721.614 115.274 718.131 117.216 C 714.648 119.158 714.665 125.705 712.773 127.932 C 710.881 130.159 708.286 135.383 706.343 138.648 C 704.401 141.913 703.564 142.398 699.914 146.149 C 696.264 149.899 688.126 154.152 688.126 155.793 Z " fill="rgb(23,22,22)"/><path d=" M 840.293 222.232 C 836.86 228.712 836.408 234.237 832.792 235.091 C 829.175 235.945 830.883 233.886 829.577 238.306 C 828.271 242.726 827.367 247.381 832.792 245.807 C 838.217 244.233 841.632 242.458 845.651 242.592 C 849.669 242.726 854.056 243.028 857.438 241.521 C 860.82 240.014 862.009 242.023 866.011 238.306 C 870.013 234.589 871.687 228.126 867.083 227.59 C 862.478 227.054 843.725 215.752 840.293 222.232 Z " fill="rgb(47,46,47)"/></g><path d=" M 755.637 153.65 C 744.564 153.293 719.56 161.151 709.558 164.366 C 699.557 167.581 685.983 164.723 683.84 174.01 C 681.697 183.297 679.911 203.658 683.84 210.445 C 687.769 217.231 693.484 221.16 694.556 225.447 C 695.627 229.733 695.27 242.235 699.914 244.736 C 704.557 247.236 712.416 253.308 714.916 258.666 Q 717.417 264.024 733.133 285.456 L 767.424 285.456 Q 781.712 260.809 786.713 258.666 C 791.714 256.523 797.072 253.308 801.715 246.879 C 806.359 240.449 802.072 232.948 806.002 225.447 C 809.931 217.946 820.29 202.586 815.646 194.371 C 811.002 186.155 817.075 169.724 809.216 167.581 C 801.358 165.438 766.71 154.007 755.637 153.65 Z " fill="rgb(0,0,0)"/></g><g><path d="M 616.029 403.11 L 882.381 403.11 C 884.582 403.11 886.37 404.898 886.37 407.1 L 886.37 422.88 C 886.37 425.082 884.582 426.87 882.381 426.87 L 616.029 426.87 C 613.828 426.87 612.04 425.082 612.04 422.88 L 612.04 407.1 C 612.04 404.898 613.828 403.11 616.029 403.11 Z" style="stroke:none;fill:#2E2E2E;stroke-miterlimit:10;"/><path d="M 622.623 243.62 L 875.787 243.62 C 881.628 243.62 886.37 248.362 886.37 254.203 L 886.37 400.207 C 886.37 406.048 881.628 410.79 875.787 410.79 L 622.623 410.79 C 616.782 410.79 612.04 406.048 612.04 400.207 L 612.04 254.203 C 612.04 248.362 616.782 243.62 622.623 243.62 Z" style="stroke:none;fill:#464646;stroke-miterlimit:10;"/><defs><filter id="ujMc5amQd7rXtcnnDzWKhAnJOKMvjXRe" x="-200%" y="-200%" width="400%" height="400%" filterUnits="objectBoundingBox" color-interpolation-filters="sRGB"><feGaussianBlur xmlns="http://www.w3.org/2000/svg" in="SourceGraphic" stdDeviation="8.587218125678056"/><feOffset xmlns="http://www.w3.org/2000/svg" dx="0" dy="0" result="pf_100_offsetBlur"/><feFlood xmlns="http://www.w3.org/2000/svg" flood-color="#72C7EA" flood-opacity="0.95"/><feComposite xmlns="http://www.w3.org/2000/svg" in2="pf_100_offsetBlur" operator="in" result="pf_100_dropShadow"/><feBlend xmlns="http://www.w3.org/2000/svg" in="SourceGraphic" in2="pf_100_dropShadow" mode="normal"/></filter></defs><g filter="url(#ujMc5amQd7rXtcnnDzWKhAnJOKMvjXRe)"><path d=" M 747.064 335.821 C 743.004 338.19 738.679 341.612 737.152 341.832 C 735.625 342.052 731.655 341.097 728.847 340.107 C 726.829 339.044 725.634 338.58 725.632 337.688 C 725.63 336.796 737.233 331.833 747.935 327.314 C 756.809 323.568 764.477 320.015 766.52 321.355 C 768.563 322.694 766.839 328.672 765.75 335.6 C 764.511 343.477 763.004 351.255 762.753 352.889 C 762.501 354.523 760.258 355.708 758.852 355.445 C 757.445 355.181 754.658 352.924 751.35 350.823 C 747.248 348.076 744.18 346.457 743.849 344.628 C 743.519 342.8 747.651 338.656 751.35 335.821 C 754.862 332.556 757.244 330.354 756.708 329.827 C 756.173 329.299 751.797 332.314 747.064 335.821 Z " fill="rgb(54,174,224)"/></g></g></g><path d=" M 310.92 0 L 0 0 L 0 500 L 189.841 500 L 310.92 500 L 310.92 500 L 310.92 500 L 432 500 L 371.46 250 L 310.92 0 Z " fill-rule="evenodd" fill="rgb(35,115,149)"/><path d=" M 1189.08 500 L 1500 500 L 1500 0 L 1310.159 0 L 1189.08 0 L 1189.08 0 L 1068 0 L 1128.54 250 L 1189.08 500 Z " fill-rule="evenodd" fill="rgb(21,66,87)"/><defs><filter id="6p6FGxyywUsHdu2DwQ1DQwNQVjvdcL04" x="-200%" y="-200%" width="400%" height="400%" filterUnits="objectBoundingBox" color-interpolation-filters="sRGB"><feGaussianBlur xmlns="http://www.w3.org/2000/svg" in="SourceGraphic" stdDeviation="18.891879876491725"/><feOffset xmlns="http://www.w3.org/2000/svg" dx="0" dy="0" result="pf_100_offsetBlur"/><feFlood xmlns="http://www.w3.org/2000/svg" flood-color="#000000" flood-opacity="0.54"/><feComposite xmlns="http://www.w3.org/2000/svg" in2="pf_100_offsetBlur" operator="in" result="pf_100_dropShadow"/><feBlend xmlns="http://www.w3.org/2000/svg" in="SourceGraphic" in2="pf_100_dropShadow" mode="normal"/></filter></defs><g filter="url(#6p6FGxyywUsHdu2DwQ1DQwNQVjvdcL04)"><path d=" M 41 335 C 53.884 329.998 61.333 324.176 61 315.018 L 61 72.227 C 61 64.927 66.927 59 74.227 59 L 436.773 59 C 444.073 59 450 64.927 450 72.227 L 450 321.773 C 450 329.073 444.073 335 436.773 335 L 74.227 335 Q 61 335 47.773 335 L 41 335 Z " fill="rgb(235,235,235)"/><clipPath id="_clipPath_APHlTRk9Wwc1grlhVTocywYwipV1seWo"><path d=" M 41 335 C 53.884 329.998 61.333 324.176 61 315.018 L 61 72.227 C 61 64.927 66.927 59 74.227 59 L 436.773 59 C 444.073 59 450 64.927 450 72.227 L 450 321.773 C 450 329.073 444.073 335 436.773 335 L 74.227 335 Q 61 335 47.773 335 L 41 335 Z " fill="rgb(235,235,235)"/></clipPath><g clip-path="url(#_clipPath_APHlTRk9Wwc1grlhVTocywYwipV1seWo)"><radialGradient id="_rgradient_0" fx="0.5521859994945666" fy="0.2728766053254302" cx="0.5" cy="0.5" r="0.5" gradientTransform="matrix(594.333,197.327,-234.333,349.256,75.5,-84.056)" gradientUnits="userSpaceOnUse"><stop offset="0.4166666666666667%" stop-opacity="1" style="stop-color:rgb(221,221,221)"/><stop offset="97.91666666666666%" stop-opacity="1" style="stop-color:rgb(35,133,138)"/></radialGradient><rect x="61" y="91.471" width="389" height="195.529" transform="matrix(1,0,0,1,0,0)" fill="url(#_rgradient_0)"/><clipPath id="_clipPath_YrIqSn67AiS4yKFrlcvVvOJa8nAG9e8h"><rect x="61" y="91.471" width="389" height="195.529" transform="matrix(1,0,0,1,0,0)" fill="url(#_rgradient_0)"/></clipPath><g clip-path="url(#_clipPath_YrIqSn67AiS4yKFrlcvVvOJa8nAG9e8h)"><defs><filter id="Qlz222oIVYU6HfLs3SbR0CBxleLMw1os" x="-200%" y="-200%" width="400%" height="400%" filterUnits="objectBoundingBox" color-interpolation-filters="sRGB"><feGaussianBlur xmlns="http://www.w3.org/2000/svg" in="SourceGraphic" stdDeviation="18.891879876491725"/><feOffset xmlns="http://www.w3.org/2000/svg" dx="0" dy="0" result="pf_100_offsetBlur"/><feFlood xmlns="http://www.w3.org/2000/svg" flood-color="#000000" flood-opacity="0.54"/><feComposite xmlns="http://www.w3.org/2000/svg" in2="pf_100_offsetBlur" operator="in" result="pf_100_dropShadow"/><feBlend xmlns="http://www.w3.org/2000/svg" in="SourceGraphic" in2="pf_100_dropShadow" mode="normal"/></filter></defs><g filter="url(#Qlz222oIVYU6HfLs3SbR0CBxleLMw1os)"><path d="M 117.475 131 L 373.525 131 C 382.342 131 389.5 138.158 389.5 146.975 L 389.5 310.025 C 389.5 318.842 382.342 326 373.525 326 L 117.475 326 C 108.658 326 101.5 318.842 101.5 310.025 L 101.5 146.975 C 101.5 138.158 108.658 131 117.475 131 Z" style="stroke:none;fill:#31373A;stroke-miterlimit:10;"/><clipPath id="_clipPath_b1nto8lbaglyA8qBIAQLvxtIo5Q9S2Yb"><path d="M 117.475 131 L 373.525 131 C 382.342 131 389.5 138.158 389.5 146.975 L 389.5 310.025 C 389.5 318.842 382.342 326 373.525 326 L 117.475 326 C 108.658 326 101.5 318.842 101.5 310.025 L 101.5 146.975 C 101.5 138.158 108.658 131 117.475 131 Z" style="stroke:none;fill:#31373A;stroke-miterlimit:10;"/></clipPath><g clip-path="url(#_clipPath_b1nto8lbaglyA8qBIAQLvxtIo5Q9S2Yb)"><rect x="101.5" y="152" width="288" height="174" transform="matrix(1,0,0,1,0,0)" fill="rgb(235,235,235)"/><clipPath id="_clipPath_HgWu2omqGfDUg53GVTfZuRhM100oiht3"><rect x="101.5" y="152" width="288" height="174" transform="matrix(1,0,0,1,0,0)" fill="rgb(235,235,235)"/></clipPath><g clip-path="url(#_clipPath_HgWu2omqGfDUg53GVTfZuRhM100oiht3)"><path d="M 189.55 161 L 322.45 161 C 324.961 161 327 163.039 327 165.55 L 327 234.45 C 327 236.961 324.961 239 322.45 239 L 189.55 239 C 187.039 239 185 236.961 185 234.45 L 185 165.55 C 185 163.039 187.039 161 189.55 161 Z" style="stroke:none;fill:#4387F8;stroke-miterlimit:10;"/><path d="M 189.518 254 L 337.482 254 C 339.976 254 342 256.024 342 258.518 L 342 327.482 C 342 329.976 339.976 332 337.482 332 L 189.518 332 C 187.024 332 185 329.976 185 327.482 L 185 258.518 C 185 256.024 187.024 254 189.518 254 Z" style="stroke:none;fill:#4387F8;stroke-miterlimit:10;"/></g><path d="M 361.266 135 L 370.734 135 C 372.537 135 374 136.463 374 138.266 L 374 147.734 C 374 149.537 372.537 151 370.734 151 L 361.266 151 C 359.463 151 358 149.537 358 147.734 L 358 138.266 C 358 136.463 359.463 135 361.266 135 Z" style="stroke:none;fill:#F40202;stroke-miterlimit:10;"/><path d="M 338.732 135 L 347.268 135 C 349.328 135 351 136.672 351 138.732 L 351 147.268 C 351 149.328 349.328 151 347.268 151 L 338.732 151 C 336.672 151 335 149.328 335 147.268 L 335 138.732 C 335 136.672 336.672 135 338.732 135 Z" style="stroke:none;fill:#4387F8;stroke-miterlimit:10;"/><path d="M 361.732 295 L 370.268 295 C 372.328 295 374 296.672 374 298.732 L 374 307.268 C 374 309.328 372.328 311 370.268 311 L 361.732 311 C 359.672 311 358 309.328 358 307.268 L 358 298.732 C 358 296.672 359.672 295 361.732 295 Z" style="stroke:none;fill:#4387F8;stroke-miterlimit:10;"/><rect x="101.5" y="152" width="69.5" height="174" transform="matrix(1,0,0,1,0,0)" fill="rgb(49,55,58)"/><clipPath id="_clipPath_ghOQLmLI243kGyNoGECAIn2ypwApOxT1"><rect x="101.5" y="152" width="69.5" height="174" transform="matrix(1,0,0,1,0,0)" fill="rgb(49,55,58)"/></clipPath><g clip-path="url(#_clipPath_ghOQLmLI243kGyNoGECAIn2ypwApOxT1)"><path d="M 112.588 156 L 161.412 156 C 164.496 156 167 158.504 167 161.588 L 167 166.412 C 167 169.496 164.496 172 161.412 172 L 112.588 172 C 109.504 172 107 169.496 107 166.412 L 107 161.588 C 107 158.504 109.504 156 112.588 156 Z" style="stroke:none;fill:#4387F8;stroke-miterlimit:10;"/><path d="M 112.588 177 L 161.412 177 C 164.496 177 167 179.504 167 182.588 L 167 187.412 C 167 190.496 164.496 193 161.412 193 L 112.588 193 C 109.504 193 107 190.496 107 187.412 L 107 182.588 C 107 179.504 109.504 177 112.588 177 Z" style="stroke:none;fill:#4387F8;stroke-miterlimit:10;"/><path d="M 112.588 198 L 161.412 198 C 164.496 198 167 200.504 167 203.588 L 167 208.412 C 167 211.496 164.496 214 161.412 214 L 112.588 214 C 109.504 214 107 211.496 107 208.412 L 107 203.588 C 107 200.504 109.504 198 112.588 198 Z" style="stroke:none;fill:#31363B;stroke-miterlimit:10;"/><path d="M 112.588 198 L 161.412 198 C 164.496 198 167 200.504 167 203.588 L 167 208.412 C 167 211.496 164.496 214 161.412 214 L 112.588 214 C 109.504 214 107 211.496 107 208.412 L 107 203.588 C 107 200.504 109.504 198 112.588 198 Z" style="fill:none;stroke:#000000;stroke-width:2;stroke-linecap:square;stroke-miterlimit:2;"/><path d="M 112.588 219 L 161.412 219 C 164.496 219 167 221.504 167 224.588 L 167 229.412 C 167 232.496 164.496 235 161.412 235 L 112.588 235 C 109.504 235 107 232.496 107 229.412 L 107 224.588 C 107 221.504 109.504 219 112.588 219 Z" style="stroke:none;fill:#31363B;stroke-miterlimit:10;"/><path d="M 112.588 219 L 161.412 219 C 164.496 219 167 221.504 167 224.588 L 167 229.412 C 167 232.496 164.496 235 161.412 235 L 112.588 235 C 109.504 235 107 232.496 107 229.412 L 107 224.588 C 107 221.504 109.504 219 112.588 219 Z" style="fill:none;stroke:#000000;stroke-width:2;stroke-linecap:square;stroke-miterlimit:2;"/><path d="M 112.588 240 L 161.412 240 C 164.496 240 167 242.504 167 245.588 L 167 250.412 C 167 253.496 164.496 256 161.412 256 L 112.588 256 C 109.504 256 107 253.496 107 250.412 L 107 245.588 C 107 242.504 109.504 240 112.588 240 Z" style="stroke:none;fill:#31363B;stroke-miterlimit:10;"/><path d="M 112.588 240 L 161.412 240 C 164.496 240 167 242.504 167 245.588 L 167 250.412 C 167 253.496 164.496 256 161.412 256 L 112.588 256 C 109.504 256 107 253.496 107 250.412 L 107 245.588 C 107 242.504 109.504 240 112.588 240 Z" style="fill:none;stroke:#000000;stroke-width:2;stroke-linecap:square;stroke-miterlimit:2;"/><path d="M 112.588 261 L 161.412 261 C 164.496 261 167 263.504 167 266.588 L 167 271.412 C 167 274.496 164.496 277 161.412 277 L 112.588 277 C 109.504 277 107 274.496 107 271.412 L 107 266.588 C 107 263.504 109.504 261 112.588 261 Z" style="stroke:none;fill:#31363B;stroke-miterlimit:10;"/><path d="M 112.588 261 L 161.412 261 C 164.496 261 167 263.504 167 266.588 L 167 271.412 C 167 274.496 164.496 277 161.412 277 L 112.588 277 C 109.504 277 107 274.496 107 271.412 L 107 266.588 C 107 263.504 109.504 261 112.588 261 Z" style="fill:none;stroke:#000000;stroke-width:2;stroke-linecap:square;stroke-miterlimit:2;"/></g></g></g></g><path d=" M 54 49 L 457 49 L 457 91.471 L 54 91.471 L 54 49 Z " fill="rgb(35,115,149)"/><rect x="37" y="287" width="418" height="48" transform="matrix(1,0,0,1,0,0)" fill="rgb(35,115,149)"/><g clip-path="url(#_clipPath_sjrJoZ01XzrOmOxBndrh2cyATTO9aP15)"><text transform="matrix(1,0,0,1,81,81.525)" style="font-family:'Orienta';font-weight:400;font-size:18px;font-style:normal;fill:#ebeaea;stroke:none;">PreviewGram Channel</text></g><defs><clipPath id="_clipPath_sjrJoZ01XzrOmOxBndrh2cyATTO9aP15"><rect x="0" y="0" width="351" height="32" transform="matrix(1,0,0,1,81,59)"/></clipPath></defs><g clip-path="url(#_clipPath_BwL6I1A9Y24MTnHKl1lFwDAZ3Hxz4aZt)"><text transform="matrix(1,0,0,1,81,316.025)" style="font-family:'Orienta';font-weight:400;font-size:18px;font-style:normal;fill:#ffffff;stroke:none;">PreviewGram is awesome!</text></g><defs><clipPath id="_clipPath_BwL6I1A9Y24MTnHKl1lFwDAZ3Hxz4aZt"><rect x="0" y="0" width="351" height="45" transform="matrix(1,0,0,1,81,287)"/></clipPath></defs></g></g><defs><filter id="IVw1S2Ho9Jb4a7xj3cl1NVjLjzGNe8p0" x="-200%" y="-200%" width="400%" height="400%" filterUnits="objectBoundingBox" color-interpolation-filters="sRGB"><feGaussianBlur xmlns="http://www.w3.org/2000/svg" in="SourceGraphic" stdDeviation="18.891879876491725"/><feOffset xmlns="http://www.w3.org/2000/svg" dx="0" dy="0" result="pf_100_offsetBlur"/><feFlood xmlns="http://www.w3.org/2000/svg" flood-color="#000000" flood-opacity="0.54"/><feComposite xmlns="http://www.w3.org/2000/svg" in2="pf_100_offsetBlur" operator="in" result="pf_100_dropShadow"/><feBlend xmlns="http://www.w3.org/2000/svg" in="SourceGraphic" in2="pf_100_dropShadow" mode="normal"/></filter></defs><g filter="url(#IVw1S2Ho9Jb4a7xj3cl1NVjLjzGNe8p0)"><path d=" M 1404.5 448 C 1393.018 443.56 1386.379 438.392 1386.676 430.262 L 1386.676 214.764 C 1386.676 208.271 1381.405 203 1374.912 203 L 1051.764 203 C 1045.271 203 1040 208.271 1040 214.764 L 1040 436.236 C 1040 442.729 1045.271 448 1051.764 448 L 1374.912 448 Q 1386.676 448 1398.44 448 L 1404.5 448 Z " fill="rgb(235,235,235)"/><clipPath id="_clipPath_ssPqWX5CyB0RIHHjzg9uYGiKBmjpItxe"><path d=" M 1404.5 448 C 1393.018 443.56 1386.379 438.392 1386.676 430.262 L 1386.676 214.764 C 1386.676 208.271 1381.405 203 1374.912 203 L 1051.764 203 C 1045.271 203 1040 208.271 1040 214.764 L 1040 436.236 C 1040 442.729 1045.271 448 1051.764 448 L 1374.912 448 Q 1386.676 448 1398.44 448 L 1404.5 448 Z " fill="rgb(235,235,235)"/></clipPath><g clip-path="url(#_clipPath_ssPqWX5CyB0RIHHjzg9uYGiKBmjpItxe)"><path d=" M 1392.914 194.123 L 1033.762 194.123 L 1033.762 231.824 L 1392.914 231.824 L 1392.914 194.123 Z " fill="rgb(35,115,149)"/><rect x="1035.544" y="231.406" width="372.521" height="216.594" transform="matrix(1,0,0,1,0,0)" fill="rgb(35,115,149)"/><g clip-path="url(#_clipPath_mEB8dEdT0AYyiwu7QnS0DqAAsDW9sO7F)"><text transform="matrix(1,0,0,1,1056.042,223.728)" style="font-family:'Orienta';font-weight:400;font-size:18px;font-style:normal;fill:#ebeaea;stroke:none;">PreviewGram Channel</text></g><defs><clipPath id="_clipPath_mEB8dEdT0AYyiwu7QnS0DqAAsDW9sO7F"><rect x="0" y="0" width="312.811" height="28.406" transform="matrix(1,0,0,1,1056.042,203)"/></clipPath></defs><g clip-path="url(#_clipPath_OcEaXfLiCFQQy8YrZifRvmZohHrKNnbb)"><text transform="matrix(1,0,0,1,1056.042,278.109)" style="font-family:'Orienta';font-weight:400;font-size:18px;font-style:normal;fill:#ffffff;stroke:none;">PreviewGram protects your privacy!</text><text transform="matrix(1,0,0,1,1056.042,321.129)" style="font-family:'Orienta';font-weight:400;font-size:18px;font-style:normal;fill:#ffffff;stroke:none;">Features:</text><text transform="matrix(1,0,0,1,1056.042,342.639)" style="font-family:'Orienta';font-weight:400;font-size:18px;font-style:normal;fill:#ffffff;stroke:none;">- JavaScript Blocked</text><text transform="matrix(1,0,0,1,1056.042,364.149)" style="font-family:'Orienta';font-weight:400;font-size:18px;font-style:normal;fill:#ffffff;stroke:none;">- No Metadada</text><text transform="matrix(1,0,0,1,1056.042,385.659)" style="font-family:'Orienta';font-weight:400;font-size:18px;font-style:normal;fill:#ffffff;stroke:none;">- No Account</text><text transform="matrix(1,0,0,1,1056.042,428.679)" style="font-family:'Orienta';font-weight:400;font-size:18px;font-style:normal;fill:#36afe1;stroke:none;">Read more...</text></g><defs><clipPath id="_clipPath_OcEaXfLiCFQQy8YrZifRvmZohHrKNnbb"><rect x="0" y="0" width="312.811" height="180.885" transform="matrix(1,0,0,1,1056.042,252.024)"/></clipPath></defs></g></g></g></svg>